<svg width="240" height="181" viewBox="0 0 240 181" fill="none" xmlns="http://www.w3.org/2000/svg">
<g opacity="0.2">
<path opacity="0.5" d="M210.955 10.7867C178.661 -3.72339 156.4 19.1392 122.747 11.433C89.094 3.72687 44.7987 -12.9518 22.4004 18.0813C0.672279 48.1963 18.86 67.1253 13.0322 81.6829C4.86437 102.081 -5.39557 118.91 6.86676 136.982C19.7042 155.898 26.1757 161.702 122.728 158.781C168.525 157.396 196.904 165.599 215.157 155.23C234.195 144.414 241.964 114.745 232.955 98.5409C210.881 58.8308 247.457 27.1989 210.955 10.7867Z" fill="#5F3FB1"/>
</g>
<path d="M172.603 57.4592C172.603 57.4592 140.067 39.2864 98.5538 62.1538L90.7593 132.967L170.804 149.13L172.603 57.4592Z" fill="#007CC2"/>
<path d="M124.223 19.4335C122.714 25.1898 121.825 31.0911 121.571 37.0366C121.263 46.3218 136.755 43.179 141.368 37.3949C141.368 37.3913 161.544 15.1726 124.223 19.4335Z" fill="#EBF5FA"/>
<path d="M128.08 39.6128L142.142 32.2412L144.296 54.5818L128.416 72.4679L128.08 39.6128Z" fill="#EBF5FA"/>
<path d="M130.76 36.5598C126.768 38.3516 124.22 36.291 124.22 36.291" stroke="#0B2343" stroke-width="0.72131" stroke-linecap="round" stroke-linejoin="round"/>
<path d="M134.634 19.6836C134.634 19.6836 135.104 38.6305 147.467 35.6919C147.467 35.6919 163.268 16.1107 134.634 19.6836Z" fill="#8DC0CB"/>
<path d="M139.877 34.4564C139.877 34.4564 145.023 27.5542 147.045 33.2379C149.066 38.9216 141.407 42.6164 138.594 38.0221L139.877 34.4564Z" fill="#EBF5FA"/>
<path d="M144.669 34.0332C144.669 34.0332 142.411 33.4705 139.806 36.3733" stroke="#0B2343" stroke-width="0.72131" stroke-linecap="round" stroke-linejoin="round"/>
<path opacity="0.5" d="M128.216 52.9834L128.112 42.8309C128.112 42.8309 131.717 43.3362 136.462 40.6807C136.462 40.6807 135.544 46.1744 133.638 48.5647C131.731 50.9551 128.216 52.9834 128.216 52.9834Z" fill="#007CC2"/>
<path d="M123.883 19.5449C123.883 19.5449 121.353 36.3344 121.375 37.5063C121.455 38.3976 121.709 39.2645 122.124 40.0579C122.845 41.1641 123.953 41.9615 125.231 42.2941C128.37 43.2509 132.857 42.4446 136.465 40.6922" stroke="#0B2343" stroke-width="0.72131" stroke-linecap="round" stroke-linejoin="round"/>
<path d="M118.36 10.7607C120.152 7.59636 124.453 10.664 126.388 11.5348C126.422 11.3811 126.478 11.2328 126.553 11.094C131.853 1.67613 146.392 20.2611 146.392 20.2611L134.634 19.6841L131.853 20.9276C131.853 20.9276 126.606 21.6444 124.51 20.0926L123.474 20.1894L118.755 18.5086C116.655 16.8136 117.511 12.2731 118.36 10.7607Z" fill="#5F3FB1"/>
<path d="M124.543 29.6362C124.925 29.6362 125.234 29.3266 125.234 28.9446C125.234 28.5626 124.925 28.2529 124.543 28.2529C124.161 28.2529 123.851 28.5626 123.851 28.9446C123.851 29.3266 124.161 29.6362 124.543 29.6362Z" fill="#0B2343"/>
<path d="M131.427 30.4526C131.809 30.4526 132.119 30.143 132.119 29.761C132.119 29.379 131.809 29.0693 131.427 29.0693C131.045 29.0693 130.735 29.379 130.735 29.761C130.735 30.143 131.045 30.4526 131.427 30.4526Z" fill="#0B2343"/>
<path d="M139.877 34.4557C139.877 34.4557 144.536 28.6287 146.414 31.9687C149.926 38.1935 142.73 39.8313 142.73 39.8313L144.296 54.5924" stroke="#0B2343" stroke-width="0.72131" stroke-linecap="round" stroke-linejoin="round"/>
<path d="M126.965 34.499V36.0005C128.422 35.7406 129.921 35.8402 131.33 36.2908C131.33 36.2908 130.158 33.1766 126.965 34.499Z" fill="#5F3FB1"/>
<path d="M126.966 34.4988V36.0004C126.966 36.0004 124.457 35.5416 122.801 35.8821C122.801 35.8821 123.772 33.1764 126.966 34.4988Z" fill="#5F3FB1"/>
<path d="M127.27 29.0693L126.617 31.7929L124.363 32.0187C124.363 32.0187 125.438 35.1472 127.492 33.8822" stroke="#0B2343" stroke-width="0.72131" stroke-linecap="round" stroke-linejoin="round"/>
<path d="M111.29 62.4769C111.29 62.4769 107.273 52.224 92.5977 63.552C77.9225 74.88 79.0371 124.381 91.1248 129.696C103.213 135.01 109.656 129.857 111.29 127.682C112.924 125.507 111.29 62.4769 111.29 62.4769Z" fill="#007CC2"/>
<path d="M111.143 65.1391C111.143 65.1391 114.268 38.3977 118.357 36.9786C122.446 35.5595 120.264 50.7076 120.264 50.7076C120.264 50.7076 123.242 47.2494 126.621 50.0339C126.621 50.0339 130.455 48.0342 132.452 51.0696C134.448 54.105 134.634 63.3616 134.634 63.3616L111.143 65.1391Z" fill="#EBF5FA" stroke="#0B2343" stroke-width="0.72131" stroke-linecap="round" stroke-linejoin="round"/>
<path d="M97.9697 125.298C97.9697 125.298 119.289 136.687 123.851 122.689C128.413 108.691 135.494 61.0428 135.494 61.0428L109.875 60.8887L97.9697 125.298Z" fill="#007CC2"/>
<path d="M172.603 136.827L90.7593 140.93L88.9961 179.863L174.993 180L172.603 136.827Z" fill="#5F3FB1"/>
<path d="M106.198 149.13C106.198 149.13 92.9954 153.029 87.3977 145.629C79.915 135.745 88.3653 127.499 88.3653 127.499C88.3653 127.499 93.2893 128.194 97.9696 133.129C102.65 138.064 106.198 149.13 106.198 149.13Z" fill="#EBF5FA" stroke="#0B2343" stroke-width="0.72131" stroke-linecap="round" stroke-linejoin="round"/>
<path d="M147.381 69.5478C147.381 69.5478 153.563 41.4303 180.222 61.0724C195.406 72.2607 190.098 152.341 148.241 149.353C134.666 148.381 101.947 154.646 96.9193 149.664C87.462 140.297 90.4042 128.704 106.197 124.665C129.574 118.684 150.216 114.451 151.818 104.879C153.42 95.3073 147.381 69.5478 147.381 69.5478Z" fill="#007CC2"/>
<path d="M151.104 83.4414C151.104 83.4414 156.003 97.8263 150.051 110.788C150.051 110.788 143.6 118.827 108.9 123.428C108.9 123.428 89.5978 126.431 92.0204 140.296" stroke="#0B2343" stroke-width="0.72131" stroke-linecap="round" stroke-linejoin="round"/>
<path d="M135.494 61.043C135.494 61.043 132.627 113.866 127.069 120.403" stroke="#0B2343" stroke-width="0.72131" stroke-linecap="round" stroke-linejoin="round"/>
<path d="M109.871 60.8789C109.871 60.8789 98.9981 103.525 100.797 118.727" stroke="#0B2343" stroke-width="0.72131" stroke-linecap="round" stroke-linejoin="round"/>
<path d="M105.248 75.123C105.248 75.123 105.481 78.7533 103.836 88.3826" stroke="#0B2343" stroke-width="0.72131" stroke-linecap="round" stroke-linejoin="round"/>
<path d="M103.836 147.532C103.836 147.532 95.0633 141.117 100.611 126.123" stroke="#0B2343" stroke-width="0.72131" stroke-linecap="round" stroke-linejoin="round"/>
<path d="M93.5293 136.064L98.765 135.129" stroke="#0B2343" stroke-width="0.72131" stroke-linecap="round" stroke-linejoin="round"/>
<path d="M94.2998 131.248L99.5356 130.312" stroke="#0B2343" stroke-width="0.72131" stroke-linecap="round" stroke-linejoin="round"/>
<path d="M94.0171 141.231L99.2528 140.296" stroke="#0B2343" stroke-width="0.72131" stroke-linecap="round" stroke-linejoin="round"/>
<path d="M95.3535 144.929L100.589 143.994" stroke="#0B2343" stroke-width="0.72131" stroke-linecap="round" stroke-linejoin="round"/>
<path d="M98.4502 148.507L103.686 147.571" stroke="#0B2343" stroke-width="0.72131" stroke-linecap="round" stroke-linejoin="round"/>
<path d="M112.014 71.3213H134.19" stroke="#0B2343" stroke-width="0.72131" stroke-linecap="round" stroke-linejoin="round"/>
<path d="M130.76 62.9209L130.015 71.321" stroke="#0B2343" stroke-width="0.72131" stroke-linecap="round" stroke-linejoin="round"/>
<path d="M124.783 62.9209L124.22 71.321" stroke="#0B2343" stroke-width="0.72131" stroke-linecap="round" stroke-linejoin="round"/>
<path d="M118.199 62.9209L117.3 71.321" stroke="#0B2343" stroke-width="0.72131" stroke-linecap="round" stroke-linejoin="round"/>
<path d="M112.699 62.9209L111.473 70.3212" stroke="#0B2343" stroke-width="0.72131" stroke-linecap="round" stroke-linejoin="round"/>
<path d="M142.583 38.5089C143.056 38.5089 143.439 38.1254 143.439 37.6524C143.439 37.1794 143.056 36.7959 142.583 36.7959C142.11 36.7959 141.726 37.1794 141.726 37.6524C141.726 38.1254 142.11 38.5089 142.583 38.5089Z" fill="#5F3FB1"/>
<path d="M144.295 149.252C144.295 149.252 149.413 163.25 173.954 161.254" stroke="#8F7ACA" stroke-width="0.360655" stroke-linecap="round" stroke-linejoin="round"/>
<path d="M118.199 151.104C118.199 151.104 114.257 169.951 118.662 179.752" stroke="#8F7ACA" stroke-width="0.360655" stroke-linecap="round" stroke-linejoin="round"/>
<path d="M125.055 150.538C125.055 150.538 120.3 176.29 127.034 179.824" stroke="#8F7ACA" stroke-width="0.360655" stroke-linecap="round" stroke-linejoin="round"/>
<path d="M89.917 159.526C89.917 159.526 97.8727 156.677 99.5356 151.104" stroke="#8F7ACA" stroke-width="0.360655" stroke-linecap="round" stroke-linejoin="round"/>
<path d="M134.634 78.3234C140.037 73.5108 144.378 67.6257 147.381 61.043" stroke="#0B2343" stroke-width="0.72131" stroke-linecap="round" stroke-linejoin="round"/>
<path d="M135.491 67.1211L137.311 75.7793" stroke="#0B2343" stroke-width="0.72131" stroke-linecap="round" stroke-linejoin="round"/>
<path d="M140.028 61.4844L141.848 70.1389" stroke="#0B2343" stroke-width="0.72131" stroke-linecap="round" stroke-linejoin="round"/>
<path d="M144.295 56.5635L145.869 64.0426" stroke="#0B2343" stroke-width="0.72131" stroke-linecap="round" stroke-linejoin="round"/>
<path d="M145.901 53.1699L135.24 65.1394" stroke="#0B2343" stroke-width="0.72131" stroke-linecap="round" stroke-linejoin="round"/>
<path opacity="0.5" d="M144.872 110.659C146.184 107.606 151.821 93.9663 151.531 85.498C151.531 85.498 155.204 97.6503 150.051 110.788C150.051 110.788 147.123 113.924 141.615 115.787L144.249 111.806C144.492 111.444 144.701 111.06 144.872 110.659Z" fill="#0B2343"/>
<path d="M82.9454 10.0546C77.7513 4.86054 70.8455 2 63.5 2C61.7286 2 60.2925 3.43602 60.2925 5.20751C60.2925 6.979 61.7286 8.41502 63.5 8.41502C75.1264 8.41502 84.585 17.8737 84.585 29.5C84.585 41.1263 75.1264 50.585 63.5 50.585C51.8736 50.585 42.415 41.1263 42.415 29.5C42.415 26.3517 43.1205 23.2488 44.4621 20.4321L45.547 21.3156C46.4955 22.088 47.9246 21.5439 48.1192 20.3363L49.5823 11.2564C49.7769 10.0489 48.5913 9.08351 47.4483 9.51856L38.8527 12.7903C37.7094 13.2255 37.466 14.7351 38.4146 15.5075L39.3762 16.2905C37.1662 20.3214 36 24.8755 36 29.5C36 36.8455 38.8605 43.7513 44.0546 48.9454C49.2487 54.1395 56.1545 57 63.5 57C70.8455 57 77.7513 54.1395 82.9454 48.9454C88.1395 43.7513 91 36.8455 91 29.5C91 22.1545 88.1395 15.2487 82.9454 10.0546Z" fill="#FECB2F"/>
<path d="M63.5 8.41502C75.1264 8.41502 84.585 17.8737 84.585 29.5C84.585 40.702 75.8038 49.8902 64.7636 50.5461C65.1818 50.5709 65.6029 50.5851 66.0272 50.5851C77.6536 50.5851 87.1122 41.1264 87.1122 29.5001C87.1122 17.8738 77.6536 8.41502 66.0272 8.41502C64.2558 8.41502 62.8197 6.979 62.8197 5.20751C62.8197 3.65645 63.9207 2.36266 65.3837 2.06467C64.7595 2.02267 64.1315 2 63.5 2C61.7286 2 60.2925 3.43602 60.2925 5.20751C60.2925 6.979 61.7286 8.41502 63.5 8.41502Z" fill="#FBAF28"/>
<path d="M46.5818 48.9452C41.3877 43.7511 38.5272 36.8453 38.5272 29.4998C38.5272 24.8753 39.6934 20.3212 41.9033 16.2902L40.9417 15.5072C39.9932 14.7347 40.2366 13.2251 41.3798 12.79L49.1054 9.84941C48.6873 9.45496 48.0618 9.2847 47.4482 9.51823L38.8526 12.79C37.7093 13.2251 37.4659 14.7347 38.4145 15.5072L39.3761 16.2902C37.1662 20.3212 36 24.8753 36 29.4998C36 36.8453 38.8605 43.7511 44.0546 48.9452C49.2487 54.1392 56.1545 56.9998 63.5 56.9998C63.9228 56.9998 64.3439 56.9891 64.7636 56.9703C57.8926 56.6616 51.4769 53.8403 46.5818 48.9452Z" fill="#FBAF28"/>
<path d="M63.4998 43.7692C71.3806 43.7692 77.7692 37.3806 77.7692 29.4999C77.7692 21.6191 71.3806 15.2305 63.4998 15.2305C55.6191 15.2305 49.2305 21.6191 49.2305 29.4999C49.2305 37.3806 55.6191 43.7692 63.4998 43.7692Z" fill="#EBF5FA"/>
<path d="M65.9931 43.5629C65.2029 43.6998 64.3898 43.7701 63.5608 43.7701C55.68 43.7701 49.291 37.3811 49.291 29.5003C49.291 21.6195 55.68 15.2305 63.5608 15.2305C64.3897 15.2305 65.2029 15.3007 65.9931 15.4377C59.272 16.5914 54.1567 22.4484 54.1567 29.5003C54.1567 36.5522 59.272 42.4092 65.9931 43.5629Z" fill="#9DC6FB"/>
<path d="M63.4996 31.3182H56.87C55.8661 31.3182 55.0522 30.5044 55.0522 29.5004C55.0522 28.4964 55.8661 27.6826 56.87 27.6826H63.4996C64.5036 27.6826 63.4996 28.4964 63.4996 29.5004C63.4996 30.5044 63.4996 30.7189 63.4996 31.3182Z" fill="#004990"/>
<path d="M63.4999 31.3183C62.496 31.3183 61.6821 30.5045 61.6821 29.5005V24.8588C61.6821 23.8548 62.496 23.041 63.4999 23.041C64.5039 23.041 65.3177 23.8548 65.3177 24.8588V29.5005C65.3177 30.5045 64.5039 31.3183 63.4999 31.3183Z" fill="#004990"/>
<path d="M63.4999 19.4272C63.0197 19.4272 62.6304 19.0379 62.6304 18.5576V15.6811C62.6304 15.2009 63.0197 14.8115 63.4999 14.8115C63.9802 14.8115 64.3695 15.2008 64.3695 15.6811V18.5576C64.3695 19.0379 63.9803 19.4272 63.4999 19.4272Z" fill="#004990"/>
<path d="M63.4999 44.19C63.0197 44.19 62.6304 43.8007 62.6304 43.3205V40.4438C62.6304 39.9636 63.0197 39.5742 63.4999 39.5742C63.9802 39.5742 64.3695 39.9635 64.3695 40.4438V43.3205C64.3695 43.8007 63.9803 44.19 63.4999 44.19Z" fill="#004990"/>
<path d="M77.3195 30.37H74.4428C73.9625 30.37 73.5732 29.9807 73.5732 29.5004C73.5732 29.0203 73.9625 28.6309 74.4428 28.6309H77.3195C77.7998 28.6309 78.189 29.0202 78.189 29.5004C78.189 29.9806 77.7998 30.37 77.3195 30.37Z" fill="#004990"/>
<path d="M52.5568 30.37H49.6801C49.2 30.37 48.8105 29.9807 48.8105 29.5004C48.8105 29.0203 49.1998 28.6309 49.6801 28.6309H52.5568C53.0371 28.6309 53.4264 29.0202 53.4264 29.5004C53.4264 29.9806 53.0371 30.37 52.5568 30.37Z" fill="#004990"/>
<path d="M73.9984 24.3099C73.6979 24.3099 73.4055 24.154 73.2446 23.875C73.0044 23.459 73.147 22.9273 73.5629 22.6872L75.0334 21.8383C75.449 21.5983 75.9812 21.7406 76.2212 22.1566C76.4614 22.5725 76.3188 23.1042 75.9029 23.3443L74.4324 24.1933C74.2954 24.2723 74.1459 24.3099 73.9984 24.3099Z" fill="#004990"/>
<path d="M51.5326 37.2807C51.2321 37.2807 50.9398 37.1247 50.7788 36.8457C50.5386 36.4298 50.6811 35.8981 51.0971 35.658L52.5675 34.809C52.9832 34.5689 53.515 34.7114 53.7552 35.1273C53.9954 35.5432 53.8529 36.075 53.4369 36.3151L51.9666 37.164C51.8297 37.2431 51.6801 37.2807 51.5326 37.2807Z" fill="#004990"/>
<path d="M69.5598 19.873C69.4123 19.873 69.2627 19.8354 69.1258 19.7563C68.71 19.5161 68.5674 18.9844 68.8075 18.5684L69.6566 17.0979C69.8968 16.682 70.4285 16.5397 70.8444 16.7797C71.2602 17.0199 71.4027 17.5517 71.1627 17.9676L70.3136 19.4381C70.1526 19.717 69.8603 19.873 69.5598 19.873Z" fill="#004990"/>
<path d="M56.5891 42.3387C56.4416 42.3387 56.2921 42.3011 56.1551 42.222C55.7393 41.982 55.5967 41.4501 55.8368 41.0343L56.6858 39.5639C56.9258 39.1479 57.4575 39.0054 57.8735 39.2456C58.2894 39.4857 58.4319 40.0175 58.1918 40.4334L57.3429 41.9038C57.182 42.1827 56.8896 42.3387 56.5891 42.3387Z" fill="#004990"/>
<path d="M57.4396 19.8729C57.1392 19.8729 56.8468 19.7169 56.6859 19.4379L55.8369 17.9674C55.5967 17.5515 55.7393 17.0198 56.1552 16.7797C56.5709 16.5397 57.103 16.682 57.343 17.098L58.1919 18.5685C58.4321 18.9844 58.2896 19.5161 57.8736 19.7562C57.7367 19.8353 57.5871 19.8729 57.4396 19.8729Z" fill="#004990"/>
<path d="M70.4105 42.3386C70.11 42.3386 69.8177 42.1827 69.6567 41.9038L68.8076 40.4334C68.5674 40.0176 68.7099 39.4857 69.1259 39.2455C69.5416 39.0055 70.0735 39.1479 70.3137 39.5638L71.1627 41.0342C71.4029 41.45 71.2605 41.9819 70.8445 42.2221C70.7075 42.301 70.558 42.3386 70.4105 42.3386Z" fill="#004990"/>
<path d="M53.0014 24.3091C52.8539 24.3091 52.7043 24.2715 52.5674 24.1924L51.097 23.3434C50.6812 23.1034 50.5386 22.5715 50.7787 22.1557C51.0187 21.7397 51.5508 21.5972 51.9665 21.8374L53.4369 22.6863C53.8527 22.9264 53.9953 23.4583 53.7552 23.8741C53.5942 24.1531 53.302 24.3091 53.0014 24.3091Z" fill="#004990"/>
<path d="M75.4673 37.2797C75.3198 37.2797 75.1703 37.2421 75.0333 37.1631L73.5628 36.3141C73.147 36.074 73.0045 35.5422 73.2445 35.1264C73.4845 34.7104 74.0163 34.5679 74.4323 34.8081L75.9028 35.657C76.3186 35.8971 76.4612 36.429 76.2211 36.8448C76.0602 37.1238 75.7678 37.2797 75.4673 37.2797Z" fill="#004990"/>
<path d="M63.4998 44.6393C55.152 44.6393 48.3608 37.8479 48.3608 29.5003C48.3608 21.1526 55.152 14.3613 63.4998 14.3613C71.8476 14.3613 78.6388 21.1526 78.6388 29.5003C78.6388 37.8479 71.8476 44.6393 63.4998 44.6393ZM63.4998 16.1004C56.1111 16.1004 50.0999 22.1115 50.0999 29.5002C50.0999 36.8889 56.111 42.9001 63.4998 42.9001C70.8886 42.9001 76.8997 36.889 76.8997 29.5003C76.8997 22.1116 70.8886 16.1004 63.4998 16.1004Z" fill="#DD636E"/>
</svg>
