<svg width="149" height="107" viewBox="0 0 149 107" fill="none" xmlns="http://www.w3.org/2000/svg">
<g clip-path="url(#clip0)">
<path d="M103.331 3.76857C83.0558 10.6258 75.2389 8.47964 54.4055 2.72166C26.6102 -4.95565 10.5576 2.94849 12.7038 34.9838C14.3614 59.8478 -0.434886 52.4671 0.0187734 73.318C0.472432 94.4306 17.8336 93.1219 52.9049 93.5582C87.9763 93.9944 87.1562 102.649 107.92 106.051C121.669 108.302 155.362 101.253 147.231 82.8797C139.1 64.5065 138.821 61.9242 144.387 30.2902C149.936 -1.36127 123.623 -3.10611 103.331 3.76857Z" fill="#E7E2F3"/>
<g opacity="0.2">
<path opacity="0.2" d="M103.331 3.76857C83.0558 10.6258 75.2389 8.47964 54.4055 2.72166C26.6102 -4.95565 10.5576 2.94849 12.7038 34.9838C14.3614 59.8478 -0.434886 52.4671 0.0187734 73.318C0.472432 94.4306 17.8336 93.1219 52.9049 93.5582C87.9763 93.9944 87.1562 102.649 107.92 106.051C121.669 108.302 155.362 101.253 147.231 82.8797C139.1 64.5065 138.821 61.9242 144.387 30.2902C149.936 -1.36127 123.623 -3.10611 103.331 3.76857Z" fill="#5F3FB1"/>
</g>
<path d="M132.626 13.8711H48.8557V70.1772H132.608V13.8711H132.626Z" fill="#EBF5FA"/>
<path d="M132.626 13.8711H48.8557V28.7023H132.608V13.8711H132.626Z" fill="#004990"/>
<path d="M76.9824 52.8857H58.7488V63.0407H76.9998V52.8857H76.9824Z" fill="#004990"/>
<path d="M97.1355 52.8857H78.9019V63.0407H97.1355V52.8857Z" fill="#004990"/>
<path d="M116.957 52.8857H98.7058V63.0407H116.939V52.8857H116.957Z" fill="#004990"/>
<path d="M76.9824 64.9248H58.7488V70.0023H76.9998V64.9248H76.9824Z" fill="#004990"/>
<path d="M97.1355 64.9248H78.9019V70.0023H97.1355V64.9248Z" fill="#004990"/>
<path d="M116.957 64.9248H98.7058V70.0023H116.939V64.9248H116.957Z" fill="#004990"/>
<path d="M105.039 35.7861H58.7488V35.9606H105.039V35.7861Z" fill="#004990"/>
<path d="M58.7489 36.6765C59.1851 36.6765 59.5515 36.3101 59.5515 35.8739C59.5515 35.4377 59.1851 35.0713 58.7489 35.0713C58.3127 35.0713 57.9463 35.4377 57.9463 35.8739C57.9463 36.3101 58.2953 36.6765 58.7489 36.6765Z" fill="#004990"/>
<path d="M104.953 36.6765C105.389 36.6765 105.755 36.3101 105.755 35.8739C105.755 35.4377 105.389 35.0713 104.953 35.0713C104.516 35.0713 104.15 35.4377 104.15 35.8739C104.15 36.3101 104.516 36.6765 104.953 36.6765Z" fill="#004990"/>
<path d="M58.7489 43.3416C59.1851 43.3416 59.5515 42.9752 59.5515 42.539C59.5515 42.1027 59.1851 41.7363 58.7489 41.7363C58.3127 41.7363 57.9463 42.1027 57.9463 42.539C57.9463 42.9752 58.2953 43.3416 58.7489 43.3416Z" fill="#004990"/>
<path d="M104.953 43.3416C105.389 43.3416 105.755 42.9752 105.755 42.539C105.755 42.1027 105.389 41.7363 104.953 41.7363C104.516 41.7363 104.15 42.1027 104.15 42.539C104.15 42.9752 104.516 43.3416 104.953 43.3416Z" fill="#004990"/>
<path d="M105.039 42.4512H58.7488V42.6257H105.039V42.4512Z" fill="#004990"/>
<path d="M131.282 14.2379C131.579 14.2379 131.858 14.36 132.05 14.5519C132.259 14.7613 132.364 15.0405 132.364 15.3197V68.7118C132.364 69.0084 132.242 69.2876 132.05 69.4796C131.84 69.6889 131.561 69.7936 131.282 69.7936H49.7105C49.4139 69.7936 49.1347 69.6715 48.9428 69.4796C48.7334 69.2702 48.6287 68.991 48.6287 68.7118V15.3197C48.6287 15.023 48.7509 14.7439 48.9428 14.5519C49.1522 14.3425 49.4314 14.2379 49.7105 14.2379H131.282ZM131.282 11.0273H49.7105C48.5764 11.0273 47.4771 11.481 46.6745 12.2836C45.8719 13.0863 45.4182 14.1855 45.4182 15.3197V68.7118C45.4182 69.846 45.8719 70.9452 46.6745 71.7479C47.4771 72.5505 48.5764 73.0041 49.7105 73.0041H131.282C132.416 73.0041 133.515 72.5505 134.318 71.7479C135.121 70.9452 135.574 69.846 135.574 68.7118V15.3197C135.574 14.1855 135.121 13.0863 134.318 12.2836C133.515 11.481 132.416 11.0273 131.282 11.0273Z" fill="#007CC2"/>
<path d="M131.282 14.4115H110.17C110.065 14.4115 109.995 14.3417 109.995 14.237C109.995 14.1323 110.065 14.0625 110.17 14.0625H131.282C131.387 14.0625 131.457 14.1323 131.457 14.237C131.457 14.3417 131.369 14.4115 131.282 14.4115Z" fill="#0B2343"/>
<path d="M48.6113 28.7368C48.5066 28.7368 48.4368 28.667 48.4368 28.5623V15.3364C48.4368 15.0048 48.5764 14.6733 48.8032 14.4465C49.0475 14.2022 49.3615 14.0801 49.6931 14.0801H92.686C92.7907 14.0801 92.8605 14.1499 92.8605 14.2546C92.8605 14.3593 92.7907 14.429 92.686 14.429H49.7105C49.4662 14.429 49.2394 14.5163 49.0649 14.6908C48.8904 14.8653 48.8032 15.0921 48.8032 15.3364V28.5623C48.7857 28.6495 48.7159 28.7368 48.6113 28.7368Z" fill="#0B2343"/>
<path d="M76.5463 70.0032H49.7106C49.3791 70.0032 49.0476 69.8636 48.8208 69.6367C48.5939 69.4099 48.4543 69.0784 48.4543 68.7469V42.0508H48.8033V68.7469C48.8033 68.9911 48.8906 69.218 49.065 69.3925C49.2395 69.5669 49.4664 69.6542 49.7106 69.6542H76.5463V70.0032Z" fill="#0B2343"/>
<path d="M131.282 70.002H104.01C103.905 70.002 103.836 69.9322 103.836 69.8275C103.836 69.7228 103.905 69.653 104.01 69.653H131.282C131.526 69.653 131.771 69.5483 131.928 69.3913C132.102 69.2168 132.189 68.99 132.189 68.7457V55.7292C132.189 55.6245 132.259 55.5547 132.364 55.5547C132.469 55.5547 132.538 55.6245 132.538 55.7292V68.7457C132.538 69.0772 132.399 69.4087 132.172 69.6356C131.945 69.8624 131.614 70.002 131.282 70.002Z" fill="#0B2343"/>
<path d="M132.556 21.3561H132.207V15.3364C132.207 15.0921 132.119 14.8653 131.945 14.6908C131.77 14.5163 131.544 14.429 131.299 14.429V14.0801C131.631 14.0801 131.962 14.2197 132.189 14.4465C132.433 14.6908 132.556 15.0048 132.556 15.3364V21.3561Z" fill="#0B2343"/>
<g opacity="0.4">
<path opacity="0.4" d="M134.475 15.3372C134.335 15.3372 134.213 15.215 134.213 15.0754C134.213 13.697 133.096 12.2662 131.247 12.2662L124.529 12.2139C124.39 12.2139 124.268 12.0917 124.268 11.9522C124.268 11.8126 124.39 11.6904 124.529 11.6904L131.247 11.7253C133.428 11.7253 134.737 13.4178 134.737 15.058C134.737 15.215 134.632 15.3372 134.475 15.3372Z" fill="#EBF5FA"/>
</g>
<g opacity="0.4">
<path opacity="0.4" d="M134.475 28.7727C134.336 28.7727 134.214 28.6505 134.214 28.5109V17.2393C134.214 17.0997 134.336 16.9775 134.475 16.9775C134.615 16.9775 134.737 17.0997 134.737 17.2393V28.5109C134.737 28.6505 134.632 28.7727 134.475 28.7727Z" fill="#EBF5FA"/>
</g>
<g opacity="0.4">
<path opacity="0.4" d="M46.6397 15.6508C46.5001 15.6508 46.3779 15.5286 46.3779 15.389C46.3779 13.7489 47.6866 12.0564 49.8676 12.0564L56.5853 12.0215C56.7248 12.0215 56.847 12.1436 56.847 12.2832C56.847 12.4228 56.7248 12.5449 56.5853 12.5449L49.8676 12.5624C48.0181 12.5624 46.9014 13.9932 46.9014 15.3716C46.9014 15.5286 46.7792 15.6508 46.6397 15.6508Z" fill="#EBF5FA"/>
</g>
<g opacity="0.4">
<path opacity="0.4" d="M46.6397 29.0861C46.5001 29.0861 46.3779 28.964 46.3779 28.8244V17.5527C46.3779 17.4132 46.5001 17.291 46.6397 17.291C46.7792 17.291 46.9014 17.4132 46.9014 17.5527V28.8244C46.9014 28.964 46.7792 29.0861 46.6397 29.0861Z" fill="#EBF5FA"/>
</g>
<mask id="mask0" mask-type="alpha" maskUnits="userSpaceOnUse" x="0" y="0" width="149" height="107">
<path d="M103.331 3.76857C83.0558 10.6258 75.2389 8.47964 54.4055 2.72166C26.6102 -4.95565 10.5576 2.94849 12.7038 34.9838C14.3614 59.8478 -0.434886 52.4671 0.0187734 73.318C0.472432 94.4306 17.8336 93.1219 52.9049 93.5582C87.9763 93.9944 87.1562 102.649 107.92 106.051C121.669 108.302 155.362 101.253 147.231 82.8797C139.1 64.5065 138.821 61.9242 144.387 30.2902C149.936 -1.36127 123.623 -3.10611 103.331 3.76857Z" fill="#5A5095"/>
</mask>
<g mask="url(#mask0)">
<path d="M165.323 76.5811H-17.2744V108.075H165.323V76.5811Z" fill="#5F3FB1"/>
<path d="M103.835 69.6012C103.835 69.6012 106.156 66.7222 109.837 67.8215C113.519 68.9207 108.616 70.1596 108.616 70.1596L103.835 69.6012Z" fill="#EBF5FA"/>
<path d="M108.616 70.3346H108.599L103.818 69.7763C103.748 69.7763 103.696 69.7239 103.678 69.6716C103.661 69.6192 103.661 69.5494 103.696 69.4971C103.713 69.4622 106.138 66.5309 109.89 67.665C110.919 67.9791 111.39 68.3106 111.373 68.7468C111.356 69.6192 109.105 70.2125 108.651 70.3346C108.651 70.3346 108.634 70.3346 108.616 70.3346ZM104.202 69.4796L108.616 69.9857C109.628 69.7239 111.024 69.183 111.041 68.7468C111.041 68.6421 110.919 68.3455 109.803 68.014C106.906 67.1241 104.847 68.8166 104.202 69.4796Z" fill="#0B2343"/>
<path d="M21.653 95.2333C11.0269 93.5234 5.11185 78.448 16.9942 64.402C32.4186 46.1509 40.253 46.4476 40.253 46.4476C40.253 46.4476 43.7078 57.1958 34.8614 63.896C26.0151 70.5962 11.0269 85.0086 25.9976 88.7774C25.9976 88.7774 30.0631 88.9345 28.7894 96.35C28.7894 96.35 26.8875 103.382 25.7184 96.1756C25.6312 95.6521 24.5319 95.2857 23.5548 95.3904C22.9267 95.4078 22.2811 95.3555 21.653 95.2333Z" fill="#EBF5FA"/>
<path d="M27.062 99.6132C27.0445 99.6132 27.0445 99.6132 27.0271 99.6132C26.3815 99.5783 25.9104 98.4965 25.544 96.2108C25.4916 95.8444 24.5145 95.4605 23.5723 95.5827C23.5374 95.5827 23.5199 95.5827 23.4851 95.5827C22.8569 95.5827 22.2288 95.5303 21.6006 95.4082C16.9244 94.6579 13.0858 91.3252 11.3061 86.5095C10.137 83.3513 9.92762 79.7395 10.7303 76.0928C11.6201 72.0098 13.679 68.0316 16.8546 64.2802C24.846 54.8231 30.761 50.4436 34.3205 48.4196C38.2115 46.2036 40.1832 46.256 40.253 46.256C40.3228 46.256 40.3926 46.3083 40.41 46.3781C40.4275 46.413 41.2824 49.135 41.0382 52.6595C40.8113 55.9049 39.5725 60.5288 34.9487 64.0185C30.9355 67.0545 27.1492 70.5442 24.532 73.5976C20.9376 77.8027 19.3847 81.2401 19.9081 83.8399C20.3618 86.0733 22.4207 87.6785 26.0325 88.5858C26.1896 88.6033 27.2539 88.708 28.1089 89.7723C29.1907 91.1159 29.4873 93.3318 28.9639 96.3678C28.8243 96.9436 28.0565 99.6132 27.062 99.6132ZM23.9213 95.2162C24.8286 95.2162 25.8057 95.5826 25.8929 96.1584C26.3466 98.9327 26.8526 99.2468 27.0445 99.2643C27.0445 99.2643 27.0445 99.2643 27.062 99.2643C27.5854 99.2643 28.2834 97.5543 28.6323 96.3155C29.1209 93.4365 28.8592 91.2555 27.8472 90.0166C27.0445 89.0046 26.0151 88.9523 25.9976 88.9523C25.9802 88.9523 25.9802 88.9523 25.9627 88.9523C22.2113 88.01 20.0477 86.3175 19.5766 83.9271C18.1284 76.7733 31.965 65.868 34.7567 63.7567C39.2759 60.3368 40.4798 55.8351 40.7066 52.6595C40.916 49.6235 40.2879 47.1982 40.1308 46.6224C39.6423 46.6573 37.723 46.8841 34.4427 48.7511C30.9181 50.7577 25.0554 55.1372 17.1164 64.507C11.2014 71.5038 9.15989 79.6871 11.6376 86.3873C13.3824 91.081 17.1338 94.3264 21.6704 95.0592C22.2811 95.1813 22.9267 95.2337 23.5548 95.2337C23.677 95.2162 23.7991 95.2162 23.9213 95.2162Z" fill="#0B2343"/>
<path d="M102.404 76.2848C102.404 76.2848 104.725 73.4058 108.406 74.5051C112.088 75.6043 107.185 76.8432 107.185 76.8432L102.404 76.2848Z" fill="#EBF5FA"/>
<path d="M107.185 76.9997H107.168L102.387 76.4413C102.317 76.4413 102.265 76.389 102.247 76.3366C102.23 76.2843 102.23 76.2145 102.265 76.1621C102.282 76.1272 104.708 73.1959 108.459 74.33C109.488 74.6441 109.959 74.9756 109.942 75.4119C109.925 76.2843 107.674 76.8775 107.22 76.9997C107.22 76.9997 107.203 76.9997 107.185 76.9997ZM102.771 76.1447L107.185 76.6507C108.197 76.389 109.593 75.8481 109.611 75.4119C109.611 75.3072 109.506 75.0105 108.372 74.679C105.475 73.8066 103.434 75.4991 102.771 76.1447Z" fill="#0B2343"/>
<path d="M104.795 69.2166C104.795 69.2166 101.113 66.9832 100.153 70.9615C99.1938 74.9397 103.347 72.4271 103.347 72.4271L104.795 69.2166Z" fill="#EBF5FA"/>
<path d="M101.096 73.3872C100.799 73.3872 100.537 73.3174 100.328 73.1604C99.8393 72.8114 99.7346 72.0437 99.9964 70.927C100.276 69.7405 100.834 68.9553 101.654 68.6238C103.102 68.0131 104.83 69.0426 104.899 69.0775C104.969 69.1298 105.004 69.2171 104.969 69.3043L103.538 72.5148C103.521 72.5497 103.503 72.5672 103.469 72.5846C103.381 72.6195 102.108 73.3872 101.096 73.3872ZM102.649 68.7634C102.352 68.7634 102.055 68.8158 101.776 68.9204C101.078 69.2171 100.59 69.915 100.328 70.9794C100.171 71.6598 100.066 72.5323 100.52 72.8638C101.148 73.3349 102.649 72.637 103.224 72.288L104.568 69.2694C104.271 69.1298 103.469 68.7634 102.649 68.7634Z" fill="#0B2343"/>
<path d="M119.853 74.9236C119.853 76.8778 116.049 76.5812 111.355 76.5812C106.662 76.5812 102.858 76.8778 102.858 74.9236C102.858 72.9693 106.662 70.9453 111.355 70.9453C116.049 70.9453 119.853 72.9693 119.853 74.9236Z" fill="#004990"/>
<path d="M47.4592 40.881L40.602 34.1982L35.5071 46.7437L41.5966 59.8125L47.4592 40.881Z" fill="#EBF5FA"/>
<path d="M41.5965 59.9698C41.5267 59.9698 41.4744 59.9349 41.4395 59.8651L35.35 46.7962C35.3326 46.7439 35.3326 46.709 35.35 46.6567L40.4449 34.1112C40.4624 34.0589 40.5147 34.024 40.5671 34.0065C40.6194 33.9891 40.6892 34.0065 40.7241 34.0589L47.5813 40.7416C47.6337 40.794 47.6511 40.8638 47.6337 40.9161L41.771 59.8477C41.7361 59.9175 41.6838 59.9698 41.5965 59.9698ZM35.699 46.7264L41.5616 59.3242L47.2498 40.9336L40.6543 34.4951L35.699 46.7264Z" fill="#0B2343"/>
<path d="M46.2728 27.3584C46.2728 27.3584 51.8214 28.0389 54.1246 36.0303C54.1246 36.0303 55.3111 36.5188 55.8345 36.6759C56.358 36.8329 54.8574 38.2288 54.2991 38.0019C54.2991 38.0019 55.3983 42.8177 52.7985 43.3935C50.1987 43.9693 47.0056 42.1896 46.2204 40.7413C44.8071 38.1241 41.7885 34.1633 46.2728 27.3584Z" fill="#EBF5FA"/>
<g opacity="0.5">
<path opacity="0.5" d="M37.1123 43.2371C37.1123 43.2371 39.4155 43.7082 40.8463 43.3593C41.6489 43.1673 45.7144 41.5097 45.2084 40.8467C45.2084 40.8467 38.229 41.4923 37.9149 41.248L37.1123 43.2371Z" fill="#007CC2"/>
</g>
<path d="M49.9893 29.139C49.9893 29.139 48.3841 25.6493 42.5563 25.5795C38.8224 25.5446 36.0306 27.8478 34.5998 31.5643C33.204 35.1936 34.5126 39.4335 35.6467 40.3932C38.7351 42.9407 45.2085 40.8643 45.2085 40.8643C45.2085 40.8643 44.7548 31.6864 49.9893 29.139Z" fill="#0B2343"/>
<path d="M46.3078 35.7167C46.3078 35.7167 44.4234 30.8835 42.3296 33.8497C40.2358 36.8159 44.0919 40.2009 46.4648 37.985L46.3078 35.7167Z" fill="#EBF5FA"/>
<path d="M26.8874 55.1375C31.2146 47.7045 34.4775 46.4482 34.4775 46.4482C41.4743 45.8724 43.9694 45.4362 49.9891 49.048L47.8081 61.3143C48.6107 62.8497 58.1724 64.8737 59.2193 79.1814C60.6326 98.3224 60.2488 101.987 65.3612 114.951C54.2465 114.759 54.4036 115.335 40.4972 113.817C25.1949 112.142 16.4358 108.285 12.2656 106.453C22.3334 58.7319 22.5602 62.5706 26.8874 55.1375Z" fill="#AE9FD8"/>
<path d="M52.5193 40.4101C51.5771 40.4101 50.8792 39.6598 50.8443 39.6423C50.7745 39.5725 50.7745 39.4678 50.8617 39.398C50.9315 39.3283 51.0362 39.3283 51.106 39.398C51.106 39.398 51.7342 40.0611 52.5193 40.0611C52.9556 40.0611 53.3569 39.8692 53.7233 39.4678C53.7931 39.398 53.8978 39.398 53.9676 39.4678C54.0374 39.5376 54.0374 39.6423 53.9676 39.7121C53.5313 40.1832 53.0428 40.4101 52.5193 40.4101Z" fill="#0B2343"/>
<path d="M45.0862 36.9556C45.0164 36.9556 44.9466 36.9207 44.9292 36.8509C44.1615 35.0886 43.0622 34.9664 43.0099 34.9664C42.9226 34.9664 42.8354 34.8792 42.8528 34.7745C42.8528 34.6873 42.9401 34.6 43.0448 34.6175C43.0971 34.6175 44.3883 34.7396 45.2607 36.7113C45.2956 36.7985 45.2607 36.9032 45.1735 36.9381C45.1386 36.9381 45.1211 36.9556 45.0862 36.9556Z" fill="#0B2343"/>
<path d="M108.895 78.7263C103.8 93.5924 78.8142 104.916 61.6101 84.3273C39.2761 57.5788 41.6491 46.3769 41.6491 46.3769C41.6491 46.3769 57.911 44.0912 65.3091 58.4861C72.7072 72.8811 81.9549 93.7668 99.5604 74.2421C99.5604 74.2421 100.346 67.0359 110.204 68.9901C110.204 68.9901 121.825 71.8516 110.797 73.4394C110.047 73.5616 109.489 76.9989 108.895 78.7263Z" fill="#EBF5FA"/>
<path d="M83.6124 95.7213C75.3593 95.7213 67.6471 91.8303 61.4878 84.4496C49.937 70.613 45.1037 61.0164 43.0972 55.398C40.8987 49.2736 41.457 46.4819 41.4745 46.3597C41.4919 46.2899 41.5443 46.2376 41.6141 46.2201C41.649 46.2201 45.7668 45.6618 50.7396 46.8832C55.3285 48.0173 61.61 50.9312 65.4661 58.4166C65.815 59.1145 66.1814 59.8299 66.5479 60.5453C71.3985 70.0721 76.8948 80.8727 84.9036 81.9371C89.4053 82.5303 94.1338 80.0003 99.4032 74.19C99.4556 73.7886 99.8569 71.5204 101.986 69.95C103.94 68.5192 106.714 68.1354 110.239 68.8333C110.814 68.9729 115.787 70.2466 115.718 71.6948C115.683 72.5324 114.13 73.1605 110.814 73.6316C110.413 73.684 109.925 75.5684 109.611 76.8247C109.419 77.5575 109.244 78.2554 109.052 78.7963C107.744 82.635 105.022 86.369 101.41 89.3003C97.6758 92.3363 93.2265 94.3952 88.5503 95.2677C86.8927 95.5817 85.2526 95.7213 83.6124 95.7213ZM41.806 46.5517C41.7362 47.1449 41.5268 49.989 43.4461 55.3282C45.4527 60.9117 50.2685 70.456 61.7495 84.2228C67.839 91.5162 75.4814 95.3723 83.6124 95.3723C85.2177 95.3723 86.8578 95.2153 88.498 94.9187C93.1218 94.0637 97.5188 92.0223 101.2 89.0211C104.76 86.1247 107.43 82.4431 108.738 78.6742C108.913 78.1333 109.105 77.4528 109.279 76.72C109.82 74.6436 110.186 73.3699 110.78 73.2826C114.74 72.7068 115.351 72.0264 115.369 71.6774C115.403 70.7875 112.193 69.6708 110.151 69.1648C106.732 68.4843 104.062 68.8507 102.178 70.2117C100.014 71.7995 99.7173 74.2423 99.7173 74.2598C99.7173 74.2947 99.6999 74.3295 99.665 74.3644C94.3083 80.2969 89.4576 82.8793 84.8338 82.2686C76.6505 81.1868 71.1019 70.299 66.2163 60.7023C65.8499 59.9869 65.4835 59.2716 65.1345 58.5736C61.3482 51.1929 55.154 48.3314 50.6349 47.2147C46.2553 46.1329 42.5214 46.4644 41.806 46.5517Z" fill="#0B2343"/>
<path d="M51.8038 43.6381C49.9368 43.6381 48.5758 43.0099 47.7209 42.4341C46.6216 41.7013 46.0982 40.8987 46.0807 40.8638C46.0284 40.7765 46.0458 40.6719 46.1331 40.6195C46.2203 40.5672 46.325 40.5846 46.3773 40.6719C46.3948 40.7068 48.4363 43.7602 52.7984 43.2368C53.3742 43.167 53.7929 42.9227 54.0721 42.4865C55.0143 41.0383 54.1593 38.1069 54.1419 38.072C54.1244 38.0197 54.1419 37.9499 54.1768 37.8976C54.2117 37.8452 54.2815 37.8278 54.3513 37.8452C54.7351 37.9325 55.1364 37.566 55.5901 37.1298L55.6599 37.06C55.7995 36.9379 55.7995 36.8681 55.7995 36.8681C55.782 36.8332 55.6599 36.7983 55.5727 36.7809C55.5552 36.7809 55.5378 36.7809 55.5203 36.7634L54.0721 36.2051C54.0197 36.1876 53.9848 36.1353 53.9674 36.0829C53.7057 35.0709 52.9903 33.4657 52.9903 33.4482C52.9554 33.361 52.9903 33.2563 53.0775 33.2214C53.1648 33.1865 53.2695 33.2214 53.3044 33.3086C53.3393 33.3784 54.0023 34.8615 54.2815 35.9084L55.625 36.4319C55.7297 36.4493 56.0438 36.5017 56.131 36.746C56.1834 36.9204 56.1136 37.0949 55.9042 37.3043L55.8344 37.3741C55.4156 37.7754 54.9969 38.1767 54.5432 38.2116C54.7351 38.9794 55.2411 41.3349 54.3513 42.6784C54.0023 43.2019 53.4963 43.516 52.8158 43.5857C52.4668 43.6032 52.1179 43.6381 51.8038 43.6381Z" fill="#0B2343"/>
<path d="M52.6415 36.3625C52.816 36.3625 52.9555 36.2229 52.9555 36.0484C52.9555 35.874 52.816 35.7344 52.6415 35.7344C52.467 35.7344 52.3274 35.874 52.3274 36.0484C52.3274 36.2229 52.4495 36.3625 52.6415 36.3625Z" fill="#0B2343"/>
<path d="M22.3335 71.6086C22.3335 71.6086 38.0196 55.9225 39.747 51.0369C41.7536 45.3487 32.0872 44.3891 24.7937 49.9376C19.4196 54.0206 15.6333 60.3195 15.6333 60.3195L22.3335 71.6086Z" fill="#AF9FD8"/>
<path d="M48.698 27.7432C48.698 27.7432 51.4898 29.6974 52.6414 32.4019C52.6414 32.4019 50.8791 34.8098 46.8311 32.1402L48.698 27.7432Z" fill="#0B2343"/>
<path d="M50.4604 25.5269C50.4604 28.0395 48.6981 30.081 46.5345 30.081C44.3709 30.081 42.6086 28.0395 42.6086 25.5269C42.6086 23.0144 45.1736 21.793 47.3372 21.793C49.5008 21.793 50.4604 23.0144 50.4604 25.5269Z" fill="#0B2343"/>
<path d="M39.7297 28.3365C39.7297 30.8491 37.9674 32.8905 35.8038 32.8905C33.6402 32.8905 31.8779 30.8491 31.8779 28.3365C31.8779 25.8239 34.4428 24.6025 36.6065 24.6025C38.7701 24.6025 39.7297 25.8239 39.7297 28.3365Z" fill="#0B2343"/>
<path d="M38.4905 37.5144C38.4905 40.027 36.7282 42.0685 34.5646 42.0685C32.401 42.0685 30.6387 40.027 30.6387 37.5144C30.6387 35.0018 33.2036 33.7805 35.3672 33.7805C37.5482 33.763 38.4905 35.0018 38.4905 37.5144Z" fill="#0B2343"/>
<path d="M96.8208 73.0557H76.6155V76.5802H96.8208V73.0557Z" fill="#007CC2"/>
<g opacity="0.5">
<path opacity="0.5" d="M57.649 79.163C57.649 79.163 64.5412 76.1793 66.0068 73.8063C67.4725 71.4159 69.7931 67.5074 69.7931 67.5074L68.153 64.4365C68.153 64.4365 64.262 68.9382 62.3601 69.008C60.4582 69.0953 53.4614 73.4748 53.4614 73.4748L55.0492 75.7431L57.649 79.163Z" fill="#007CC2"/>
</g>
<path d="M33.7971 49.0655C33.7971 49.0655 48.4363 35.4731 68.0484 58.2782L70.2469 61.8377C70.2469 61.8377 65.6405 69.2533 63.2326 69.6372C60.8247 70.021 51.4898 74.6972 50.914 74.5576C50.3557 74.418 33.7971 49.0655 33.7971 49.0655Z" fill="#AE9FD8"/>
<path d="M119.941 42.5911L117.306 44.5279L115.352 36.3271L122.593 40.6544L119.941 42.5911Z" fill="#004990"/>
<path d="M118.981 40.0791L117.829 40.9166L121.476 45.8894L122.628 45.0519L118.981 40.0791Z" fill="#004990"/>
<g opacity="0.5">
<path opacity="0.5" d="M20.8337 69.0957L17.6406 63.8438C17.6406 63.8438 16.9078 64.5068 15.4421 66.6878L19.6996 73.1263C19.9613 71.7479 20.3451 70.4044 20.8337 69.0957Z" fill="#007CC2"/>
</g>
<g opacity="0.46">
<path opacity="0.46" d="M44.0398 59.917C44.0398 59.917 49.0126 74.3119 50.6179 74.5737C52.2231 74.8354 53.4445 73.4919 53.4445 73.4919L59.534 81.8322L61.6104 84.3622C61.6104 84.3622 59.8132 91.2718 61.6104 94.0287C61.6104 94.0287 58.2254 93.9938 50.6876 93.5576C50.6876 93.5576 53.3224 84.5542 48.0878 76.999C45.6451 73.4046 44.0398 59.917 44.0398 59.917Z" fill="#5F3FB1"/>
</g>
<path d="M48.3846 71.1201C48.2974 71.1201 48.2276 71.0677 48.2101 70.9805C48.1927 70.8932 48.245 70.7885 48.3323 70.7711C62.5876 67.2989 63.6869 63.0414 63.6869 63.0065C63.7043 62.9193 63.7916 62.8495 63.8963 62.8669C63.9835 62.8844 64.0533 62.9716 64.0359 63.0763C64.001 63.2508 62.9541 67.5606 48.4195 71.1026C48.4195 71.1201 48.4021 71.1201 48.3846 71.1201Z" fill="#0B2343"/>
<path d="M18.4956 78.2028C18.4781 78.2028 18.4607 78.2028 18.4607 78.2028C18.3734 78.1853 18.3036 78.0806 18.3385 77.9934C22.5261 60.8242 24.7595 57.5439 24.8642 57.4217C24.9166 57.3345 25.0213 57.317 25.1085 57.3868C25.1783 57.4392 25.2132 57.5438 25.1434 57.6311C25.126 57.666 22.8402 61.0335 18.67 78.0806C18.6526 78.1504 18.5828 78.2028 18.4956 78.2028Z" fill="#0B2343"/>
<path d="M20.8336 69.2692C20.7813 69.2692 20.7115 69.2343 20.6766 69.182L15.4595 60.388C15.4246 60.3356 15.4246 60.2484 15.4595 60.196C18.8096 55.4152 24.0616 49.221 29.9592 46.8654C33.5186 45.4347 35.6299 46.0803 35.7171 46.0977C35.8044 46.1326 35.8567 46.2198 35.8393 46.3245C35.8044 46.4118 35.7171 46.4641 35.6125 46.4467C35.595 46.4467 33.5186 45.8185 30.0464 47.2144C24.271 49.5525 19.1237 55.6071 15.8085 60.3182L20.9558 69.0075C21.0081 69.0947 20.9732 69.1994 20.886 69.2518C20.9034 69.2692 20.8685 69.2692 20.8336 69.2692Z" fill="#0B2343"/>
<path d="M22.3341 63.2155C22.2818 63.2155 22.2295 63.1981 22.1946 63.1457L17.8674 57.3528C17.815 57.283 17.8325 57.1609 17.9022 57.1086C17.972 57.0562 18.0942 57.0737 18.1465 57.1435L22.4737 62.9363C22.5261 63.0061 22.5086 63.1283 22.4388 63.1806C22.4039 63.1981 22.369 63.2155 22.3341 63.2155Z" fill="#0B2343"/>
<path d="M50.6181 74.7485C50.5657 74.7485 50.5134 74.7311 50.4785 74.6787C46.3781 69.3046 43.3072 58.1376 43.2897 58.0155C43.2723 57.9282 43.3246 57.8235 43.4119 57.8061C43.4991 57.7886 43.6038 57.841 43.6212 57.9282C43.6561 58.0329 46.6573 69.0254 50.6879 74.3821C51.1066 74.2774 52.6421 73.8935 53.34 73.3526C54.0379 72.8117 58.6967 71.0494 63.0064 69.4267C63.5299 69.2348 63.9661 69.0603 64.3151 68.9382C66.6706 68.0483 67.9618 64.419 67.9792 64.3841C68.0141 64.2969 68.1188 64.2445 68.2061 64.2794C68.2933 64.3143 68.3457 64.419 68.3108 64.5063C68.2584 64.6633 66.9498 68.3275 64.4372 69.2871C64.0882 69.4093 63.652 69.5838 63.1286 69.7757C60.0228 70.9447 54.2648 73.0909 53.5494 73.6492C52.677 74.3297 50.7402 74.7485 50.653 74.7659C50.653 74.7485 50.6355 74.7485 50.6181 74.7485Z" fill="#0B2343"/>
<path d="M115.962 76.7728C115.613 76.7728 115.387 76.7554 115.334 76.7554L109.489 76.7728C109.384 76.7728 109.314 76.703 109.314 76.5984C109.314 76.4937 109.384 76.4239 109.489 76.4239L115.352 76.4064C116.346 76.4762 118.981 76.4064 119.487 75.3595C119.731 74.8361 119.435 74.1032 118.58 73.161L115.439 71.6605C115.352 71.6256 115.317 71.5209 115.352 71.4336C115.386 71.3464 115.491 71.3115 115.578 71.3464L118.772 72.8818L118.789 72.8993C119.766 73.9636 120.098 74.8535 119.766 75.5166C119.278 76.6333 117.062 76.7728 115.962 76.7728Z" fill="#0B2343"/>
<path d="M129.764 76.6154C129.607 76.6154 129.45 76.6154 129.293 76.598C128.944 76.5805 128.612 76.5282 128.316 76.4409C127.182 76.6503 125.821 76.6678 124.215 76.1443C118.562 74.2948 118.58 74.225 118.632 74.0156C118.632 73.9981 118.684 73.8586 118.876 73.876C118.929 73.8935 118.981 73.9284 118.998 73.9632C119.26 74.0854 120.307 74.4867 124.32 75.7953C125.611 76.2141 126.728 76.2839 127.705 76.1618C127.461 76.0222 127.234 75.8302 127.025 75.6208C126.065 74.5739 126.117 73.0559 126.135 73.0036C126.135 72.8989 126.222 72.8291 126.309 72.8291C126.414 72.8291 126.484 72.9163 126.484 73.0036C126.484 73.021 126.431 74.4344 127.286 75.3766C127.566 75.6906 127.915 75.9 128.333 76.0571C129.258 75.8651 130.043 75.5511 130.724 75.2544C131.457 74.9404 132.085 74.6786 132.643 74.7135C133.55 74.7484 133.673 75.0799 133.673 75.2719C133.638 75.9524 131.997 76.6154 129.764 76.6154ZM129.136 76.249C129.188 76.249 129.241 76.249 129.31 76.2664C131.91 76.3711 133.324 75.6034 133.324 75.3068C133.324 75.2544 133.149 75.1323 132.626 75.0974C132.154 75.0799 131.544 75.3242 130.846 75.6208C130.34 75.8128 129.764 76.0571 129.136 76.249Z" fill="#0B2343"/>
<path d="M34.8447 33.6748L33.5012 34.0587L36.5547 41.4219C36.956 41.1951 37.2875 40.881 37.5144 40.4971C37.9331 39.8341 34.8447 33.6748 34.8447 33.6748Z" fill="#5F3FB1"/>
<path d="M39.3114 26.0146C39.3114 26.0146 37.2525 32.3659 34.1118 32.4357L34.8446 32.9766C34.8446 32.9766 39.7826 31.7552 39.5732 26.7475L39.3114 26.0146Z" fill="#5F3FB1"/>
<path d="M42.6264 25.2295C42.6264 25.2295 42.5915 26.1717 42.7311 26.6777C42.7311 26.6777 48.2972 29.7835 48.8555 29.2077C49.1347 28.9111 49.4139 28.6145 49.6582 28.283C49.6582 28.283 44.6854 27.6548 42.6264 25.2295Z" fill="#5F3FB1"/>
<path d="M61.392 20.136V19.304H57.704V25H58.664V22.712H61.2V21.888H58.664V20.136H61.392ZM63.6899 20.816C62.5939 20.816 62.0339 21.424 61.9939 22.192H62.8899C62.9139 21.76 63.1859 21.48 63.6899 21.48C64.1539 21.48 64.4819 21.72 64.4819 22.32V22.48C64.1939 22.496 63.7139 22.544 63.3859 22.6C62.2179 22.784 61.8259 23.216 61.8259 23.88C61.8259 24.576 62.3539 25.088 63.2019 25.088C63.8179 25.088 64.2739 24.864 64.5699 24.432H64.5859C64.5859 24.624 64.6019 24.824 64.6419 25H65.4659C65.4019 24.744 65.3619 24.408 65.3619 23.928V22.408C65.3619 21.344 64.7619 20.816 63.6899 20.816ZM64.4819 23.272C64.4819 23.704 64.4179 23.92 64.2019 24.144C64.0179 24.328 63.7459 24.416 63.4659 24.416C63.0019 24.416 62.7459 24.176 62.7459 23.816C62.7459 23.448 62.9619 23.272 63.5459 23.176C63.8179 23.128 64.2099 23.088 64.4819 23.072V23.272ZM68.1784 20.816C66.9784 20.816 66.2024 21.648 66.2024 22.968C66.2024 24.288 66.9784 25.12 68.1784 25.12C69.2264 25.12 69.9304 24.44 70.0104 23.456H69.0504C69.0104 24.008 68.6744 24.4 68.1784 24.4C67.5384 24.4 67.1624 23.856 67.1624 22.968C67.1624 22.08 67.5384 21.536 68.1784 21.536C68.6744 21.536 69.0184 21.88 69.0584 22.408H70.0104C69.9304 21.48 69.2184 20.816 68.1784 20.816ZM72.4973 24.304C72.0973 24.304 71.9453 24.12 71.9453 23.664V21.632H72.7373V20.936H71.9453V19.92H71.0333V20.936H70.3533V21.632H71.0333V23.8C71.0333 24.688 71.4093 25.048 72.2653 25.048C72.4333 25.048 72.6413 25.016 72.7773 24.976V24.264C72.7133 24.288 72.6013 24.304 72.4973 24.304ZM75.0162 25.096C75.5522 25.096 75.9762 24.84 76.2322 24.472H76.2482V25H77.1122V20.936H76.2002V23.192C76.2002 23.968 75.7922 24.36 75.2722 24.36C74.7602 24.36 74.4482 24.072 74.4482 23.344V20.936H73.5362V23.424C73.5362 24.536 74.0962 25.096 75.0162 25.096ZM80.3033 20.88C79.7993 20.88 79.4153 21.096 79.1433 21.536H79.1273V20.936H78.2793V25H79.1913V23.008C79.1913 22.16 79.5913 21.696 80.3193 21.696C80.4233 21.696 80.5273 21.704 80.6393 21.728V20.92C80.5353 20.896 80.4073 20.88 80.3033 20.88ZM82.6587 20.816C81.5627 20.816 81.0027 21.424 80.9627 22.192H81.8587C81.8827 21.76 82.1547 21.48 82.6587 21.48C83.1227 21.48 83.4507 21.72 83.4507 22.32V22.48C83.1627 22.496 82.6827 22.544 82.3547 22.6C81.1867 22.784 80.7947 23.216 80.7947 23.88C80.7947 24.576 81.3227 25.088 82.1707 25.088C82.7867 25.088 83.2427 24.864 83.5387 24.432H83.5547C83.5547 24.624 83.5707 24.824 83.6107 25H84.4347C84.3707 24.744 84.3307 24.408 84.3307 23.928V22.408C84.3307 21.344 83.7307 20.816 82.6587 20.816ZM83.4507 23.272C83.4507 23.704 83.3867 23.92 83.1707 24.144C82.9867 24.328 82.7147 24.416 82.4347 24.416C81.9707 24.416 81.7147 24.176 81.7147 23.816C81.7147 23.448 81.9307 23.272 82.5147 23.176C82.7867 23.128 83.1787 23.088 83.4507 23.072V23.272ZM87.1472 20.816C85.9472 20.816 85.1712 21.648 85.1712 22.968C85.1712 24.288 85.9472 25.12 87.1472 25.12C88.1952 25.12 88.8992 24.44 88.9792 23.456H88.0192C87.9792 24.008 87.6432 24.4 87.1472 24.4C86.5072 24.4 86.1312 23.856 86.1312 22.968C86.1312 22.08 86.5072 21.536 87.1472 21.536C87.6432 21.536 87.9872 21.88 88.0272 22.408H88.9792C88.8992 21.48 88.1872 20.816 87.1472 20.816ZM90.746 20.176V19.304H89.834V20.176H90.746ZM90.746 25V20.936H89.834V25H90.746ZM93.7761 20.456L94.8321 19.304H93.6801L93.0321 20.456H93.7761ZM93.6401 20.816C92.4081 20.816 91.6321 21.648 91.6321 22.968C91.6321 24.288 92.4081 25.12 93.6401 25.12C94.8721 25.12 95.6401 24.288 95.6401 22.968C95.6401 21.648 94.8721 20.816 93.6401 20.816ZM93.6401 21.536C94.2881 21.536 94.6881 22.088 94.6881 22.968C94.6881 23.848 94.2881 24.4 93.6401 24.4C92.9921 24.4 92.5921 23.848 92.5921 22.968C92.5921 22.088 92.9921 21.536 93.6401 21.536ZM98.6253 20.84C98.0893 20.84 97.6653 21.096 97.4093 21.464H97.3933V20.936H96.5293V25H97.4413V22.744C97.4413 21.968 97.8493 21.576 98.3693 21.576C98.8813 21.576 99.1933 21.864 99.1933 22.592V25H100.105V22.512C100.105 21.4 99.5453 20.84 98.6253 20.84Z" fill="white"/>
</g>
</g>
<defs>
<clipPath id="clip0">
<rect width="148.486" height="106.61" fill="white"/>
</clipPath>
</defs>
</svg>
