<svg xmlns="http://www.w3.org/2000/svg" width="18" height="22" viewBox="0 0 18 22" fill="none">
      <path
        d="M14.0957 1.42139V4.72658H17.4009"
        stroke="#007CC2"
        strokeMiterlimit="10"
        strokeLinecap="round"
        strokeLinejoin="round"
      />
      <path
        d="M3.53201 6.7097V2.08904C3.53201 1.72547 3.82285 1.42139 4.17981 1.42139H14.0954C14.2673 1.42139 14.3466 1.49413 14.4656 1.61311L17.2023 4.31674C17.3279 4.44234 17.394 4.55471 17.394 4.72658V19.9173C17.394 20.2809 17.1031 20.5783 16.7396 20.5783H4.17322C3.80964 20.5783 3.52539 20.2809 3.52539 19.9173V18.582"
        stroke="#007CC2"
        strokeMiterlimit="10"
        strokeLinecap="round"
        strokeLinejoin="round"
      />
      <path
        d="M8.36964 14.6153C6.11549 14.6153 4.29102 12.7908 4.29102 10.5367C4.29102 8.28251 6.11549 6.45801 8.36964 6.45801C10.6238 6.45801 12.4482 8.28251 12.4482 10.5367C12.4482 12.7908 10.6172 14.6153 8.36964 14.6153Z"
        stroke="#007CC2"
        strokeMiterlimit="10"
        strokeLinecap="round"
        strokeLinejoin="round"
      />
      <path
        d="M5.48846 13.4189L1 17.9074"
        stroke="#007CC2"
        strokeMiterlimit="10"
        strokeLinecap="round"
        strokeLinejoin="round"
      />
    </svg>